<?xml version="1.0" standalone="no"?>
<!DOCTYPE svg PUBLIC "-//W3C//DTD SVG 20010904//EN"
 "http://www.w3.org/TR/2001/REC-SVG-20010904/DTD/svg10.dtd">
<svg version="1.0" xmlns="http://www.w3.org/2000/svg"
 width="300.000000pt" height="439.000000pt" viewBox="0 0 300.000000 439.000000"
 preserveAspectRatio="xMidYMid meet">
<metadata>
Created by potrace 1.10, written by Peter Selinger 2001-2011
</metadata>
<g transform="translate(0.000000,439.000000) scale(0.100000,-0.100000)"
fill="#000000" stroke="none">
<path d="M1260 3810 c0 -5 16 -22 36 -37 38 -30 117 -133 109 -141 -3 -3 -18
6 -33 20 -38 35 -81 62 -89 54 -3 -3 2 -15 11 -25 32 -35 12 -41 -34 -11 -69
46 -127 61 -216 58 -80 -3 -110 -20 -54 -31 66 -14 24 -25 -107 -29 -113 -4
-150 -9 -203 -29 -35 -13 -63 -28 -62 -34 2 -5 10 -9 18 -9 21 2 18 -1 -26
-30 -22 -14 -40 -31 -40 -36 0 -6 33 -7 83 -4 l82 5 -67 -34 c-37 -18 -79 -44
-93 -57 -38 -36 -83 -110 -105 -175 -28 -80 -26 -97 6 -60 14 17 23 22 20 13
-2 -9 -8 -33 -12 -52 -9 -49 10 -47 36 5 23 44 102 129 121 129 6 0 -2 -15
-19 -34 -17 -19 -47 -68 -68 -108 -38 -72 -106 -150 -194 -220 -25 -20 -42
-39 -38 -43 3 -3 34 -1 67 6 34 6 64 10 66 7 3 -3 -21 -21 -54 -41 -115 -72
-172 -164 -179 -294 -2 -46 -1 -83 3 -83 4 0 15 10 26 23 l19 22 -7 -30 c-8
-34 -8 -68 1 -90 10 -27 24 -16 31 25 4 22 16 54 28 72 25 37 114 104 125 93
4 -3 -1 -13 -12 -20 -18 -14 -14 -35 7 -35 7 0 25 7 41 15 16 9 31 14 33 12 2
-2 -15 -32 -37 -65 -36 -54 -109 -127 -278 -278 -29 -26 -43 -46 -40 -56 6
-13 17 -13 94 -2 49 7 90 11 92 9 2 -2 -13 -38 -34 -81 -37 -74 -39 -82 -38
-173 1 -79 5 -108 27 -165 38 -96 35 -113 -26 -202 -51 -75 -123 -144 -221
-212 -26 -18 -44 -37 -41 -42 9 -15 130 -12 208 5 38 8 94 26 124 40 31 14 60
25 66 25 6 0 -9 -21 -35 -47 -65 -68 -90 -123 -96 -213 -4 -63 -3 -73 9 -63
12 10 13 1 11 -58 -4 -77 9 -91 29 -31 14 44 57 132 65 132 3 0 2 -17 -2 -37
l-6 -38 37 39 c20 21 39 36 42 33 3 -3 0 -22 -7 -41 -7 -22 -10 -87 -9 -169
l3 -133 -32 -46 c-18 -26 -32 -50 -32 -53 0 -4 19 -4 41 0 62 11 47 -13 -35
-54 -74 -37 -76 -52 -7 -71 127 -35 224 26 354 221 75 113 223 255 178 171
-15 -29 -14 -52 4 -52 8 0 15 4 15 10 0 11 104 90 120 90 17 0 -11 -105 -41
-156 -23 -39 -24 -64 -3 -64 9 0 47 17 85 37 38 20 71 34 75 30 3 -3 15 -47
25 -96 27 -131 50 -175 112 -216 43 -28 50 -11 36 85 -6 46 -9 126 -6 183 7
138 35 213 51 136 3 -17 22 -66 41 -109 33 -74 35 -83 35 -191 0 -177 37 -284
135 -386 42 -44 72 -50 60 -13 -3 10 -10 42 -14 72 -5 29 -12 67 -16 83 l-6
30 17 -23 c24 -33 31 -28 39 31 9 66 40 140 57 134 7 -2 12 -14 10 -25 -5 -36
15 -25 61 34 106 134 165 274 154 362 l-6 47 52 -56 c33 -35 69 -89 96 -145
96 -197 184 -287 317 -323 48 -13 121 -17 131 -8 3 4 -16 31 -44 60 -27 29
-55 63 -62 76 -12 21 -11 22 9 11 12 -6 28 -9 36 -6 11 4 6 16 -21 52 -40 53
-44 86 -20 199 8 38 15 114 15 167 0 54 3 98 8 98 13 0 49 -64 67 -117 26 -82
59 -68 36 15 -5 17 -8 32 -5 32 13 0 44 -70 44 -98 0 -49 22 -35 38 24 7 27
14 101 15 164 2 95 -1 121 -16 148 -22 40 -19 46 17 32 31 -12 146 -14 146 -2
0 4 -14 15 -31 25 -43 24 -33 29 32 15 94 -20 195 29 114 55 -16 5 -52 26 -80
47 -117 88 -159 151 -190 284 -9 38 -23 82 -31 98 -8 16 -14 34 -12 39 4 13
64 -69 79 -107 8 -24 12 -26 19 -13 25 44 51 174 57 285 7 136 -5 192 -57 260
-16 22 -30 42 -30 46 0 4 24 4 53 1 48 -4 57 -2 117 37 l65 43 -40 12 c-100
30 -220 123 -272 213 -28 47 -26 60 5 43 26 -14 89 -14 97 -1 3 5 -6 12 -20
16 -43 11 -27 21 25 16 67 -6 67 16 1 48 -53 24 -102 70 -145 135 -40 61 -31
74 22 30 17 -14 33 -22 35 -18 9 16 -20 102 -49 140 -36 50 -76 84 -150 128
-67 40 -78 43 -69 15 6 -19 5 -19 -36 -5 -55 20 -72 19 -93 -4 -16 -18 -16
-21 -1 -51 16 -31 16 -33 -9 -59 -17 -17 -24 -34 -20 -44 5 -13 0 -15 -30 -10
-47 7 -46 -6 4 -35 70 -39 110 -82 188 -201 45 -69 112 -151 162 -202 94 -96
198 -169 210 -149 6 9 15 8 38 -4 17 -9 33 -20 36 -25 9 -14 -51 -34 -83 -28
-22 5 -34 0 -52 -19 l-23 -24 23 -48 c32 -63 52 -112 48 -112 -2 0 -21 25 -40
55 -53 79 -121 127 -313 221 -95 47 -183 97 -199 114 -73 76 -113 -4 -60 -118
14 -30 25 -55 25 -57 0 -2 -12 -6 -27 -10 -28 -7 -27 -8 22 -31 54 -25 112
-40 122 -31 3 4 -19 33 -48 65 -54 58 -90 132 -88 182 0 15 3 19 6 10 19 -49
51 -72 227 -159 209 -103 278 -156 320 -245 32 -67 54 -192 38 -208 -9 -9 -12
-5 -12 18 0 39 -41 123 -76 155 -40 37 -95 69 -119 69 -16 0 -13 -6 18 -37 39
-38 74 -93 59 -93 -5 0 -19 12 -33 26 -43 47 -162 118 -264 158 -55 21 -122
52 -148 69 -26 16 -50 27 -53 25 -9 -10 48 -69 85 -87 20 -10 70 -32 111 -49
84 -33 160 -76 228 -127 49 -38 62 -41 93 -22 22 13 22 13 64 -68 11 -22 30
-44 43 -50 12 -5 22 -14 22 -20 0 -17 -21 -85 -26 -85 -3 0 -18 10 -34 21 -30
23 -56 20 -67 -7 -7 -20 31 -182 61 -256 13 -32 21 -58 17 -58 -4 0 -23 17
-43 38 -44 45 -79 113 -107 207 -42 144 -151 276 -316 385 -92 61 -137 74
-149 44 -11 -29 -6 -43 37 -96 64 -79 64 -80 -19 -41 -64 30 -88 37 -145 37
-50 1 -72 -3 -84 -15 -15 -15 -10 -17 67 -21 80 -5 88 -8 231 -82 201 -103
239 -103 121 1 -72 63 -198 202 -190 210 6 7 203 -131 249 -176 73 -68 128
-157 162 -259 55 -168 104 -238 204 -297 28 -16 51 -34 51 -39 0 -14 -49 3
-137 45 -97 46 -192 130 -235 206 -29 51 -55 72 -44 36 19 -67 37 -148 34
-161 -2 -8 -38 52 -81 134 -43 83 -98 176 -123 206 -73 93 -206 168 -297 168
-41 0 -21 -23 35 -40 144 -42 233 -128 331 -316 37 -72 81 -144 97 -159 l30
-29 24 23 23 22 69 -52 c74 -56 169 -105 222 -115 26 -5 38 -2 57 16 25 24 44
20 79 -19 19 -21 19 -21 -21 -21 -29 0 -46 -6 -63 -25 -19 -20 -29 -23 -64
-19 -33 5 -45 2 -60 -15 -17 -18 -18 -26 -8 -60 14 -46 16 -217 3 -226 -5 -3
-12 -1 -16 5 -3 5 -14 10 -23 10 -9 0 -30 16 -45 35 -33 42 -52 44 -88 9 l-26
-25 -12 47 c-15 58 -53 134 -98 196 -19 27 -31 48 -26 48 4 0 31 -14 58 -30
68 -40 87 -38 46 4 -18 19 -94 66 -168 105 -174 92 -237 134 -271 182 -29 42
-42 49 -42 23 0 -49 64 -112 187 -183 69 -40 72 -43 61 -66 -8 -19 -8 -32 1
-51 6 -15 10 -28 8 -30 -2 -2 -23 3 -47 11 -79 28 -153 13 -137 -29 3 -8 -3
-22 -14 -32 -28 -25 -24 -46 22 -104 30 -38 38 -55 30 -63 -19 -19 -13 -38 38
-116 44 -69 98 -160 175 -294 15 -26 48 -73 73 -104 41 -50 43 -54 15 -35 -54
39 -109 111 -153 200 -94 191 -194 288 -229 222 -18 -33 -27 -23 -33 36 -6 56
-27 94 -54 94 -9 0 -13 18 -13 68 0 67 -14 114 -23 82 -3 -8 -10 -53 -17 -100
-6 -47 -20 -119 -31 -162 -22 -87 -23 -98 -9 -98 16 0 68 91 82 143 22 86 30
51 26 -115 -3 -152 -5 -167 -30 -220 -15 -32 -29 -58 -31 -58 -3 0 4 27 14 61
10 33 19 65 19 70 0 18 -20 -2 -39 -39 -11 -20 -42 -68 -69 -105 -28 -37 -54
-81 -57 -97 -4 -17 -11 -33 -17 -36 -22 -14 4 72 39 129 19 32 37 76 40 97 6
41 -2 90 -15 90 -4 0 -21 -30 -36 -67 -16 -38 -35 -75 -42 -83 -7 -9 -23 -37
-34 -64 -25 -55 -30 -173 -10 -245 16 -61 7 -61 -20 1 -38 87 -50 148 -50 250
0 93 3 105 50 234 93 249 124 423 118 657 -1 81 0 147 4 147 23 0 50 -254 41
-393 -4 -80 -3 -107 6 -107 7 0 19 17 28 38 28 66 31 86 17 100 -10 9 -14 40
-14 103 0 194 -71 347 -109 237 -6 -17 -11 -86 -11 -152 0 -148 -13 -259 -46
-391 -31 -128 -93 -295 -109 -295 -17 0 -52 121 -77 265 -20 118 -20 122 -3
230 10 65 16 142 14 188 -3 42 -1 77 2 77 8 0 25 -42 35 -83 10 -41 24 -29 53
46 29 75 42 86 34 28 -7 -48 12 -64 29 -24 l12 28 4 -32 c5 -51 -13 -161 -44
-258 l-29 -90 -3 63 c-2 34 -7 62 -12 62 -5 0 -20 -33 -32 -72 -24 -78 -31
-218 -15 -311 14 -80 27 -42 28 81 1 115 8 166 20 160 14 -6 53 39 74 87 25
57 55 178 55 225 0 40 -22 81 -60 113 -16 14 -30 31 -30 37 0 18 50 91 60 85
4 -3 23 7 41 22 18 16 40 27 50 25 23 -4 84 70 103 126 34 98 12 166 -84 259
l-62 61 55 -15 c87 -25 179 6 193 64 4 15 15 39 26 52 11 15 18 37 16 58 -1
18 3 38 10 45 22 22 14 73 -19 117 l-30 43 23 33 c12 19 34 39 47 45 47 22
100 71 106 99 4 18 -2 49 -16 87 -12 33 -22 78 -21 101 2 34 -6 57 -40 114
-49 81 -120 159 -145 159 -10 1 -42 22 -71 48 l-53 48 83 86 c112 116 204 159
308 142 l45 -7 -47 -12 c-69 -18 -108 -45 -148 -98 -40 -54 -52 -41 -20 22 18
35 18 41 5 41 -18 0 -94 -49 -115 -75 -13 -15 -11 -16 23 -10 33 6 37 5 43
-19 3 -15 1 -39 -6 -55 -6 -16 -10 -40 -8 -52 3 -21 9 -15 50 42 53 75 101
105 151 95 32 -6 77 -41 77 -60 0 -6 -5 -5 -12 2 -12 12 -58 17 -58 6 0 -3 11
-19 25 -36 21 -24 25 -40 25 -91 1 -58 2 -61 16 -42 10 14 14 39 13 80 -1 33
1 70 5 83 10 31 -16 70 -60 88 -31 13 -47 34 -25 34 4 0 25 12 46 26 44 30 72
19 40 -16 -18 -20 -18 -21 6 -44 13 -13 44 -30 69 -39 25 -9 68 -37 95 -61
l50 -43 -30 -19 -30 -19 62 -31 c72 -35 84 -23 25 25 -57 47 -22 37 47 -14 34
-25 61 -41 61 -36 0 22 -89 116 -161 170 -73 56 -127 81 -172 81 -10 0 -15 5
-12 11 4 6 26 9 49 8 52 -3 51 12 -5 63 -69 63 -178 85 -256 53 -19 -8 -39
-15 -44 -15 -4 0 -8 24 -8 53 0 62 -10 92 -46 135 -28 34 -50 34 -39 0 7 -24
-4 -88 -15 -88 -5 0 -15 14 -22 32 -18 45 -66 96 -108 118 -62 31 -241 55
-241 31 0 -4 26 -24 59 -44 51 -32 131 -123 131 -150 0 -4 -33 20 -72 53 -90
76 -154 114 -237 140 -69 22 -101 25 -101 10z m431 -94 c46 -35 88 -102 110
-173 7 -24 16 -43 20 -43 4 0 17 12 29 28 l21 27 -7 -35 c-12 -69 -114 -235
-138 -227 -6 2 -14 33 -18 69 -3 36 -14 81 -24 99 -25 50 -56 89 -70 89 -6 0
-19 11 -28 25 -9 14 -24 37 -33 52 -14 21 -15 25 -3 18 39 -23 90 -70 88 -80
-2 -7 12 -24 30 -40 18 -15 39 -40 48 -56 22 -43 34 -35 34 21 0 65 -32 148
-81 210 -46 58 -39 63 22 16z m-205 -74 c60 -69 107 -146 139 -227 15 -38 33
-74 40 -80 7 -5 16 -24 19 -40 7 -33 -12 -59 -63 -85 -21 -11 -23 -10 -17 5 3
9 9 35 12 58 4 23 11 47 16 54 11 14 -19 85 -39 91 -10 3 -13 -21 -13 -95 0
-114 -14 -153 -24 -69 -8 76 -30 127 -87 214 -27 40 -49 75 -49 78 0 3 23 -14
50 -37 28 -23 53 -39 57 -36 11 12 -56 144 -115 226 l-17 25 25 -17 c14 -9 44
-38 66 -65z m-386 18 c0 -24 -4 -30 -22 -30 -13 0 -29 4 -35 8 -18 11 12 52
38 52 14 0 19 -7 19 -30z m84 -22 c89 -47 192 -155 243 -253 38 -74 42 -78 51
-56 10 29 14 24 37 -49 9 -30 24 -65 32 -78 19 -31 9 -42 -38 -42 -42 0 -125
38 -154 70 -31 35 -83 20 -139 -39 -17 -17 -40 -31 -52 -31 -33 0 -85 -58
-146 -163 -39 -70 -53 -103 -54 -137 -1 -25 -9 -69 -18 -99 -13 -46 -14 -57
-1 -87 8 -19 21 -34 30 -34 22 0 78 -44 110 -86 l27 -35 -26 -37 c-38 -56 -46
-83 -30 -113 7 -14 12 -40 12 -58 -1 -17 8 -44 19 -59 11 -15 23 -39 26 -54
14 -56 114 -85 205 -59 45 13 40 1 -18 -43 -94 -72 -113 -137 -74 -259 20 -63
66 -127 93 -127 9 0 28 -13 43 -30 14 -17 35 -30 45 -30 11 0 26 -15 38 -37
11 -20 32 -44 47 -53 25 -15 26 -19 14 -36 -14 -18 -15 -18 -33 -1 -45 40 -73
1 -73 -100 0 -39 -7 -116 -16 -169 -14 -81 -15 -110 -5 -173 15 -101 14 -108
-9 -114 -19 -5 -20 0 -20 92 0 54 -5 112 -11 129 -9 27 -8 35 10 58 19 24 21
39 20 158 0 72 2 138 6 147 4 10 -7 32 -29 58 l-35 42 -31 -67 c-16 -37 -30
-71 -30 -77 0 -5 20 12 45 38 25 27 47 47 49 44 2 -2 -2 -28 -9 -57 -10 -38
-13 -86 -8 -170 4 -86 3 -114 -6 -107 -14 14 -30 97 -23 130 7 37 -15 30 -24
-7 -12 -55 -6 -122 15 -176 25 -64 27 -167 6 -322 -18 -134 -18 -182 -1 -250
18 -69 12 -77 -13 -19 -30 68 -41 161 -33 279 9 119 2 222 -14 227 -7 2 -14
-17 -17 -47 -4 -29 -17 -75 -30 -103 -25 -54 -76 -122 -85 -113 -3 3 0 11 5
18 23 30 35 92 44 228 5 80 16 170 25 200 26 92 28 104 15 95 -21 -12 -101
-186 -101 -219 -1 -43 -22 -96 -54 -139 -40 -53 -51 -46 -21 13 14 28 32 86
39 129 14 81 32 124 72 178 23 31 32 58 16 51 -4 -1 -32 -15 -63 -31 -31 -15
-79 -30 -110 -32 l-54 -5 51 18 c69 25 131 62 191 116 53 48 151 181 140 192
-3 3 -57 -46 -119 -109 -89 -90 -128 -122 -184 -150 -79 -40 -92 -57 -64 -82
15 -14 30 -16 64 -12 24 4 46 4 49 1 2 -3 -2 -29 -10 -57 -9 -29 -17 -58 -19
-66 -6 -19 -34 5 -34 29 0 35 -31 48 -117 51 -46 2 -83 5 -83 7 0 2 11 17 25
34 14 16 25 39 25 51 0 18 20 32 96 72 53 27 118 70 144 95 72 67 79 131 16
138 -21 3 -26 7 -21 20 4 9 11 42 16 72 5 30 17 76 26 103 19 53 12 80 -24 85
-32 5 -126 -89 -197 -197 -74 -113 -138 -175 -311 -300 l-127 -92 -24 26 c-13
14 -24 28 -24 30 0 2 26 22 57 44 32 21 73 55 92 75 l35 36 22 -21 c17 -16 26
-19 42 -10 33 18 114 113 185 219 79 116 148 189 226 235 69 41 83 63 56 83
-29 23 -129 13 -200 -20 -32 -14 -60 -25 -62 -23 -2 2 24 34 57 72 33 37 60
73 60 78 0 18 -32 47 -52 47 -16 0 -13 6 16 34 20 18 36 42 36 53 0 24 -19 43
-42 43 -23 0 -23 11 2 57 22 42 27 112 8 131 -21 21 -46 13 -98 -33 -47 -42
-150 -103 -150 -89 0 10 43 67 93 122 41 46 46 55 36 74 -6 11 -20 23 -30 25
-10 3 -19 8 -19 12 0 8 57 147 80 197 22 45 24 54 12 54 -16 0 -71 -87 -95
-151 -13 -35 -38 -92 -56 -126 -17 -34 -27 -65 -22 -68 5 -3 12 -1 16 5 7 12
79 50 94 50 5 0 -20 -31 -57 -69 -37 -39 -94 -98 -127 -133 -50 -52 -80 -73
-178 -121 -66 -32 -121 -56 -123 -54 -3 3 17 21 45 41 67 50 142 133 181 203
86 153 194 314 249 373 34 36 61 66 61 67 0 2 -10 3 -23 3 -13 0 -31 6 -41 13
-17 12 -17 18 -6 51 6 20 9 44 6 53 -5 12 -16 1 -41 -41 -19 -31 -48 -74 -64
-95 -17 -21 -28 -41 -25 -43 3 -3 28 7 57 23 29 16 58 29 64 29 7 0 -20 -33
-60 -72 -43 -44 -86 -98 -105 -135 -18 -35 -36 -63 -38 -63 -10 0 8 64 28 103
11 22 17 41 14 44 -3 3 -38 -11 -78 -30 -40 -20 -84 -39 -98 -41 -41 -9 -87
-43 -120 -87 -39 -54 -39 -29 1 49 40 80 103 136 230 203 106 55 225 155 217
181 -3 7 1 28 9 46 15 37 7 56 -28 67 -18 6 -17 9 12 51 41 60 55 53 51 -23
-4 -64 17 -130 45 -140 23 -9 43 18 43 56 0 46 8 57 45 64 20 3 40 -1 61 -14
22 -13 40 -17 68 -12 50 8 65 38 45 90 -13 34 -13 42 2 71 24 46 21 45 77 27
27 -9 61 -15 74 -13 18 3 10 9 -42 35 -133 63 -211 73 -162 20 22 -25 46 -67
40 -72 -2 -2 -26 13 -52 35 -126 99 -301 91 -440 -19 -22 -17 -41 -29 -44 -26
-13 12 98 108 158 138 61 30 70 32 180 32 133 0 199 -18 314 -85 65 -38 70
-39 87 -24 18 16 21 14 68 -30 45 -41 71 -56 71 -40 0 15 -65 97 -111 138 -58
52 -80 52 -49 -1 11 -20 19 -38 16 -40 -2 -3 -30 16 -61 41 -100 82 -262 146
-367 146 -51 0 -46 -19 8 -35 l39 -12 -40 -7 c-22 -4 -58 -11 -80 -16 -36 -9
-42 -7 -60 14 -11 13 -30 27 -43 31 -13 4 -21 12 -19 18 4 14 60 34 108 39 29
3 34 0 31 -17 -3 -16 -1 -18 9 -7 27 25 195 9 323 -32 42 -13 78 -20 81 -16 3
5 -21 30 -52 56 -32 27 -62 52 -67 56 -21 17 9 7 68 -24z m213 -25 c43 -7 51
-34 19 -66 l-24 -24 -42 42 c-44 45 -47 73 -6 60 11 -4 35 -9 53 -12z m513
-35 c0 -25 7 -49 17 -60 19 -22 9 -51 -21 -56 -15 -3 -16 2 -10 33 7 38 -14
75 -43 75 -19 0 -16 9 10 31 35 29 47 24 47 -23z m-1057 -195 c9 -8 -43 -64
-54 -58 -18 12 -165 -190 -184 -252 -12 -42 25 -26 88 37 33 33 62 60 64 60 2
0 -3 -13 -11 -28 -12 -23 -108 -122 -118 -122 -2 0 -40 -13 -85 -28 -46 -16
-83 -27 -83 -25 0 2 16 17 35 34 19 17 49 61 66 98 24 50 53 87 121 154 69 68
84 87 67 87 -12 0 -37 -9 -55 -21 -19 -11 -38 -18 -44 -14 -32 20 55 60 181
84 3 1 9 -2 12 -6z m135 -37 c33 -17 73 -59 101 -106 27 -45 27 -75 0 -32 -12
17 -25 32 -29 32 -5 0 -10 -15 -12 -32 l-3 -33 -18 33 c-20 36 -44 41 -84 15
-26 -17 -26 -17 -15 4 6 11 19 23 27 27 31 11 6 25 -26 14 -48 -17 -63 -48
-57 -123 7 -75 -5 -77 -22 -5 -14 57 -8 92 21 129 21 26 9 45 -14 22 -18 -18
-28 -12 -17 10 14 26 69 59 98 59 13 0 35 -6 50 -14z m-428 -48 c0 -14 -30
-48 -42 -48 -11 0 -1 39 14 57 11 14 28 8 28 -9z m1168 -82 c30 -16 90 -77
116 -119 22 -36 37 -27 26 16 l-9 32 30 -35 c64 -73 185 -270 137 -222 -12 12
-48 17 -48 6 0 -3 9 -19 20 -34 34 -48 60 -113 60 -153 0 -23 -4 -36 -10 -32
-5 3 -10 15 -10 26 0 10 -4 19 -10 19 -5 0 -10 -13 -10 -28 0 -34 -16 -52 -47
-52 -15 0 -30 -12 -47 -38 -31 -50 -51 -65 -76 -57 -34 11 -23 -9 23 -42 45
-31 81 -90 71 -116 -7 -18 -47 -37 -82 -37 -30 0 -59 -15 -46 -23 22 -13 73
-17 97 -8 32 12 31 13 11 -27 -14 -29 -19 -32 -65 -32 -27 0 -49 -4 -49 -10 0
-14 35 -30 67 -30 27 -1 27 -1 8 -16 -36 -27 -96 -38 -143 -25 -60 16 -170 87
-188 123 -31 61 26 144 91 132 36 -6 97 19 129 55 27 30 14 36 -31 12 l-39
-19 -28 34 c-15 19 -31 34 -37 34 -5 0 -28 -13 -51 -30 -25 -19 -53 -30 -73
-30 -21 0 -46 11 -70 30 -21 17 -43 30 -48 30 -6 0 -26 -14 -44 -32 l-33 -32
-31 18 c-34 20 -45 16 -31 -11 19 -36 50 -54 107 -63 103 -17 140 -59 109
-125 -48 -102 -226 -167 -311 -115 -39 23 -42 32 -10 30 46 -4 67 0 67 14 0
18 -22 26 -71 26 -31 0 -39 4 -39 18 0 10 -5 23 -11 29 -8 8 7 9 55 6 45 -4
66 -2 66 5 0 7 -12 15 -27 18 -52 13 -113 43 -113 56 0 24 50 88 92 118 l41
30 -36 0 c-32 0 -40 5 -62 41 -15 22 -41 49 -59 60 -19 11 -37 30 -40 42 l-6
22 -21 -25 -21 -25 7 54 c3 31 21 83 41 124 l36 70 -36 -23 c-42 -25 -46 -19
-12 20 13 16 42 61 64 102 22 40 55 89 72 108 33 37 33 37 14 -32 -10 -34 13
-18 44 31 30 49 102 111 128 111 10 0 12 -11 8 -42 -5 -35 -2 -48 16 -70 32
-42 42 -35 34 25 l-7 52 29 -31 c53 -56 158 -53 207 6 30 35 37 30 37 -27 0
-51 21 -59 40 -13 11 27 10 53 -6 94 -8 20 8 20 44 2z m621 -106 c85 -41 201
-117 201 -131 0 -4 -34 10 -76 32 -120 62 -134 52 -49 -39 63 -69 70 -85 20
-46 -20 15 -39 23 -43 19 -10 -10 109 -117 191 -171 72 -47 80 -67 31 -72 -34
-4 -64 -28 -64 -51 0 -9 12 -36 25 -60 14 -24 24 -46 22 -48 -11 -10 -152 157
-224 265 -44 67 -79 122 -76 122 3 0 42 -30 86 -66 84 -68 150 -108 170 -101
6 2 -14 22 -45 45 -31 22 -83 66 -117 98 -34 31 -89 72 -124 91 l-62 34 68 -6
c45 -4 67 -2 67 5 0 6 -24 36 -54 66 -30 30 -49 54 -42 54 6 0 50 -18 95 -40z
m182 -170 c-3 -8 -5 -28 -4 -43 0 -24 -2 -26 -13 -15 -8 7 -17 28 -20 47 -6
30 -5 33 17 29 16 -2 22 -9 20 -18z m-2016 1 l30 -8 -28 -13 c-25 -12 -30 -12
-50 8 -21 21 -21 22 -2 21 11 -1 34 -5 50 -8z m25 -249 c0 -10 7 -28 16 -41
13 -18 14 -28 5 -47 -13 -29 -16 -29 -66 1 -22 14 -45 28 -52 31 -18 9 -77
-23 -117 -63 -39 -39 -66 -39 -66 1 0 22 3 25 28 20 22 -4 36 3 70 35 25 23
67 48 100 60 72 25 82 25 82 3z m376 -193 c-9 -59 -38 -109 -90 -157 -72 -66
-63 -76 36 -38 35 13 72 26 83 30 12 5 5 -6 -18 -27 -27 -25 -69 -46 -144 -72
-128 -44 -173 -69 -233 -130 -24 -25 -48 -45 -52 -45 -13 0 20 60 59 108 20
24 33 45 30 48 -9 10 -140 -120 -172 -171 -18 -27 -40 -72 -50 -100 -36 -98
-47 -73 -20 43 36 153 116 254 268 338 172 95 246 144 273 180 15 19 29 34 31
34 3 0 3 -18 -1 -41z m526 -29 c18 -11 50 -20 71 -20 42 0 46 -9 17 -35 -19
-17 -21 -17 -54 13 -19 16 -48 33 -65 37 -17 4 -31 11 -31 16 0 15 27 10 62
-11z m-1032 -249 c-15 -28 -26 -33 -40 -16 -10 12 -8 16 11 24 36 14 41 13 29
-8z m435 -19 c-6 -4 -44 -30 -85 -57 -41 -28 -118 -93 -170 -145 -79 -79 -104
-112 -149 -198 -30 -56 -59 -101 -64 -99 -10 3 -56 119 -57 142 0 6 10 15 22
20 13 6 42 45 69 95 45 83 47 85 80 82 27 -2 44 5 74 31 63 53 119 85 197 112
77 26 99 30 83 17z m4 -108 c-57 -58 -123 -117 -147 -131 -23 -14 -39 -29 -36
-34 15 -25 113 3 202 57 66 40 168 74 221 74 36 0 36 -1 -20 -24 -102 -41
-167 -104 -264 -250 -58 -89 -169 -228 -186 -234 -5 -2 -2 12 6 32 17 39 20
116 6 116 -5 0 -30 -31 -56 -70 -49 -73 -87 -108 -174 -159 -64 -38 -241 -115
-247 -108 -3 3 19 21 49 41 89 59 137 120 221 280 43 82 89 167 103 190 31 49
122 139 196 195 67 51 219 142 226 135 3 -2 -42 -52 -100 -110z m776 37 c129
-100 165 -146 165 -210 0 -49 -44 -156 -76 -182 -13 -11 -14 -9 -7 17 15 55 6
122 -21 169 -35 59 -66 64 -36 6 33 -65 36 -113 10 -181 -28 -74 -42 -85 -34
-27 4 31 1 53 -10 75 -24 46 -34 39 -28 -20 4 -46 1 -60 -34 -125 -21 -40 -41
-73 -44 -73 -3 0 -20 29 -38 65 -25 52 -32 78 -32 125 0 61 -12 79 -26 38 -4
-13 -7 -50 -7 -83 l1 -59 -24 39 c-42 70 -41 177 2 243 20 30 10 41 -16 17
-49 -45 -74 -147 -50 -209 5 -15 6 -26 1 -26 -14 0 -48 77 -66 147 -25 98 -18
111 121 230 65 56 126 102 134 102 8 0 60 -35 115 -78z m-550 -253 c-13 -29
-29 -82 -34 -116 -10 -62 -44 -136 -75 -162 -17 -13 -22 -40 -8 -40 4 0 41 20
81 45 40 25 75 45 78 45 2 0 -10 -19 -27 -43 -44 -62 -205 -162 -315 -197 -65
-20 -160 -77 -220 -131 -30 -29 -58 -49 -61 -47 -7 8 82 114 116 138 16 12 30
26 30 32 0 26 -165 -107 -230 -186 -75 -92 -62 -47 16 55 30 40 83 85 174 149
176 125 249 194 309 293 48 79 163 217 181 217 5 0 -2 -24 -15 -52z m-255
-516 c0 -5 -10 -13 -23 -19 -34 -16 -137 -113 -137 -129 0 -18 9 -18 52 1 48
20 252 27 237 8 -13 -15 -102 -43 -138 -43 -18 0 -22 -3 -14 -11 14 -14 110
-14 146 0 41 16 43 14 17 -14 -13 -14 -51 -41 -84 -60 -78 -43 -196 -141 -196
-161 0 -12 11 -9 53 14 59 34 157 66 157 51 0 -5 -4 -9 -9 -9 -27 0 -112 -87
-199 -203 -79 -106 -112 -142 -162 -175 -55 -37 -80 -49 -80 -39 0 2 20 18 44
35 45 33 146 156 146 180 0 18 -12 14 -50 -18 -38 -33 -63 -41 -36 -11 9 10
32 62 51 116 19 54 48 120 65 148 17 27 29 52 26 54 -24 24 -156 -147 -156
-202 0 -8 -4 -15 -10 -15 -14 0 -12 74 5 155 30 142 111 258 226 324 57 32 69
36 69 23z m1420 -48 c44 -41 70 -76 94 -128 41 -85 52 -137 62 -274 7 -111 -5
-138 -26 -54 -18 73 -109 216 -126 199 -4 -4 5 -30 20 -57 17 -31 32 -79 38
-123 5 -40 20 -99 33 -132 14 -32 23 -61 20 -63 -2 -2 -21 19 -42 47 -65 86
-72 62 -13 -46 49 -91 100 -160 122 -166 9 -3 21 -14 27 -26 10 -17 9 -21 -4
-21 -25 0 -56 20 -50 31 4 5 -15 34 -42 63 -26 30 -91 130 -143 222 -52 93
-115 192 -139 222 -24 29 -41 55 -39 58 5 5 82 -51 152 -110 26 -21 49 -36 53
-33 12 12 -32 64 -151 179 -66 64 -118 119 -115 123 4 3 35 -8 70 -25 63 -30
109 -39 109 -21 0 11 -81 71 -128 95 -48 25 -36 28 33 10 63 -17 157 -60 205
-94 30 -21 50 -26 50 -11 0 13 -65 98 -113 149 -60 62 -28 51 43 -14z m-1698
-136 c-45 -84 -42 -81 -62 -63 -13 12 -26 14 -42 9 -13 -4 -33 -8 -45 -8 -12
-1 -30 -9 -41 -19 -27 -25 -32 -21 -32 21 0 49 12 68 30 47 19 -23 33 -19 82
24 34 30 50 38 70 34 14 -3 34 0 45 5 10 6 19 9 21 7 2 -2 -10 -27 -26 -57z
m457 -68 c-5 -16 -13 -43 -18 -59 -5 -16 -5 -34 0 -42 14 -22 11 -37 -11 -49
-22 -12 -60 5 -60 27 0 7 -9 22 -20 33 -11 11 -20 22 -20 25 0 2 17 13 38 24
20 10 48 31 61 45 32 34 42 33 30 -4z m111 -77 c0 -35 -14 -58 -29 -49 -14 9
-14 31 1 56 18 28 28 25 28 -7z m-590 -193 c16 -8 17 -15 9 -42 -5 -18 -6 -47
-3 -63 6 -36 -22 -70 -46 -55 -11 7 -12 15 -2 48 7 22 12 58 12 81 0 44 2 46
30 31z m1880 -92 c0 -47 -14 -42 -29 10 -8 28 -7 32 10 32 16 0 19 -7 19 -42z
m8 -85 c31 -86 12 -120 -27 -52 -20 36 -21 45 -10 65 17 32 22 30 37 -13z"/>
<path d="M1138 2968 c-34 -12 -36 -25 -5 -30 18 -2 21 -8 19 -34 -4 -43 17
-56 96 -63 l67 -6 0 -40 c0 -22 -4 -59 -8 -82 -9 -52 7 -58 23 -9 6 19 27 55
46 80 40 53 42 62 10 70 -16 4 -26 15 -31 35 -9 42 -36 62 -107 77 -73 16 -74
16 -110 2z m150 -60 c21 -18 13 -28 -22 -28 -48 0 -66 9 -66 32 0 18 4 19 38
13 20 -4 43 -11 50 -17z"/>
<path d="M1805 2973 c-55 -10 -66 -15 -94 -39 -17 -14 -31 -34 -31 -45 0 -11
-10 -24 -23 -30 l-23 -10 48 -95 c27 -52 52 -94 55 -94 6 0 -2 93 -13 146 l-6
31 62 0 c73 1 100 19 100 70 0 29 3 33 25 33 31 0 33 18 3 24 -47 10 -84 13
-103 9z m35 -63 c0 -11 -5 -22 -10 -25 -15 -9 -110 -14 -110 -5 0 13 38 41 66
49 37 10 54 4 54 -19z"/>
<path d="M2105 3228 l7 -33 -24 23 c-31 28 -39 28 -68 -3 -29 -31 -36 -31 -43
-3 l-6 22 -26 -24 -26 -24 37 -14 c32 -13 40 -13 70 1 41 20 78 10 111 -31
l23 -27 0 29 c0 34 -37 116 -52 116 -6 0 -7 -13 -3 -32z"/>
<path d="M2136 2943 c55 -84 95 -152 109 -185 l15 -37 -30 -16 c-16 -9 -30
-20 -30 -26 0 -6 35 -46 78 -91 64 -66 93 -87 167 -123 131 -64 251 -103 266
-88 16 16 25 10 -106 62 -166 67 -224 98 -269 148 -22 25 -60 56 -84 70 -58
35 -44 42 18 10 27 -14 52 -22 55 -17 12 20 -95 233 -143 283 -44 45 -74 52
-46 10z"/>
<path d="M1927 1949 c-22 -13 -21 -32 2 -121 30 -114 36 -168 17 -168 -23 0
-20 -13 12 -42 42 -39 80 -61 97 -54 13 4 9 15 -20 60 -27 40 -39 70 -46 121
-5 37 -20 95 -34 128 -13 34 -23 63 -20 65 7 7 136 -164 180 -239 58 -101 176
-224 281 -295 91 -61 144 -123 174 -202 18 -45 18 -46 25 -20 8 32 -27 115
-69 165 -15 18 -62 56 -104 86 -113 80 -196 168 -280 297 -122 188 -175 241
-215 219z"/>
<path d="M2310 1418 c1 -10 251 -260 256 -255 19 19 -114 174 -195 226 -42 27
-62 36 -61 29z"/>
</g>
</svg>
